<svg width="1000" height="1000" xmlns="http://www.w3.org/2000/svg">
 <!-- Created with SVG Editor - http://github.com/mzalive/SVG Editor/ -->
 <defs>
  <linearGradient y2="0.715908" x2="-0.762437" y1="-0.812625" x1="8.171878" id="svg_20">
   <stop stop-color="#2E49FF" offset="0"/>
   <stop stop-color="#2A56FB" offset="0.0678"/>
   <stop stop-color="#1891EB" offset="0.3878"/>
   <stop stop-color="#0BBCE0" offset="0.6611"/>
   <stop stop-color="#03D6D9" offset="0.8738"/>
   <stop stop-color="#00E0D6" offset="1"/>
  </linearGradient>
  <linearGradient y2="0.907675" x2="-0.536963" y1="-0.663231" x1="3.890982" id="svg_19">
   <stop stop-color="#2E49FF" offset="0"/>
   <stop stop-color="#2A56FB" offset="0.0678"/>
   <stop stop-color="#1891EB" offset="0.3878"/>
   <stop stop-color="#0BBCE0" offset="0.6611"/>
   <stop stop-color="#03D6D9" offset="0.8738"/>
   <stop stop-color="#00E0D6" offset="1"/>
  </linearGradient>
  <linearGradient y2="1.194122" x2="-0.928883" y1="-0.656511" x1="2.899808" id="svg_18">
   <stop stop-color="#2E49FF" offset="0"/>
   <stop stop-color="#2A56FB" offset="0.0678"/>
   <stop stop-color="#1891EB" offset="0.3878"/>
   <stop stop-color="#0BBCE0" offset="0.6611"/>
   <stop stop-color="#03D6D9" offset="0.8738"/>
   <stop stop-color="#00E0D6" offset="1"/>
  </linearGradient>
  <linearGradient y2="1.59427" x2="-0.918503" y1="-0.281188" x1="1.514957" id="svg_17">
   <stop stop-color="#2E49FF" offset="0"/>
   <stop stop-color="#2A56FB" offset="0.0678"/>
   <stop stop-color="#1891EB" offset="0.3878"/>
   <stop stop-color="#0BBCE0" offset="0.6611"/>
   <stop stop-color="#03D6D9" offset="0.8738"/>
   <stop stop-color="#00E0D6" offset="1"/>
  </linearGradient>
  <linearGradient y2="0.586532" x2="0.093416" y1="-1.219704" x1="3.752155" id="svg_16">
   <stop stop-color="#2E49FF" offset="0"/>
   <stop stop-color="#2A56FB" offset="0.0678"/>
   <stop stop-color="#1891EB" offset="0.3878"/>
   <stop stop-color="#0BBCE0" offset="0.6611"/>
   <stop stop-color="#03D6D9" offset="0.8738"/>
   <stop stop-color="#00E0D6" offset="1"/>
  </linearGradient>
  <linearGradient y2="0.950758" x2="-1.693977" y1="-0.824789" x1="6.948163" id="svg_15">
   <stop stop-color="#2E49FF" offset="0"/>
   <stop stop-color="#2A56FB" offset="0.0678"/>
   <stop stop-color="#1891EB" offset="0.3878"/>
   <stop stop-color="#0BBCE0" offset="0.6611"/>
   <stop stop-color="#03D6D9" offset="0.8738"/>
   <stop stop-color="#00E0D6" offset="1"/>
  </linearGradient>
  <linearGradient y2="1.267895" x2="-0.816454" y1="-0.895705" x1="2.860384" id="svg_14">
   <stop stop-color="#2E49FF" offset="0"/>
   <stop stop-color="#2A56FB" offset="0.0678"/>
   <stop stop-color="#1891EB" offset="0.3878"/>
   <stop stop-color="#0BBCE0" offset="0.6611"/>
   <stop stop-color="#03D6D9" offset="0.8738"/>
   <stop stop-color="#00E0D6" offset="1"/>
  </linearGradient>
  <linearGradient y2="1.636798" x2="-1.445782" y1="-0.512803" x1="2.239599" id="svg_13">
   <stop stop-color="#2E49FF" offset="0"/>
   <stop stop-color="#2A56FB" offset="0.0678"/>
   <stop stop-color="#1891EB" offset="0.3878"/>
   <stop stop-color="#0BBCE0" offset="0.6611"/>
   <stop stop-color="#03D6D9" offset="0.8738"/>
   <stop stop-color="#00E0D6" offset="1"/>
  </linearGradient>
 </defs>
 <g>
  <title>background</title>
  <rect fill="none" id="canvas_background" height="1002" width="1002" y="-1" x="-1"/>
  <g display="none" overflow="visible" y="0" x="0" height="100%" width="100%" id="canvasGrid">
   <rect fill="url(#gridpattern)" stroke-width="0" y="0" x="0" height="100%" width="100%"/>
  </g>
 </g>
 <g>
  <title>Layer 1</title>
  <g id="svg_35">
   <g transform="matrix(1.09025, 0, 0, 1.09025, -3398.4, -2131.01)" id="svg_22">
    <g id="svg_24">
     <path id="svg_25" d="m3301.106689,2184.415527l-52.98999,-0.01001l0.01001,-38.98999l52.98999,0.01001l-0.01001,38.98999zm-0.050049,226l-52.939941,-0.01001l0.060059,-214.98999l52.939941,0.01001l-0.060059,214.98999z" fill="url(#svg_20)"/>
     <path id="svg_26" d="m3416.106689,2410.415527l-33.110107,-0.01001c-23.859863,-0.01001 -38.149902,-3.600098 -42.839844,-10.77002c-4.700195,-7.169922 -7.040039,-20.959961 -7.040039,-41.359863l0.040039,-130.860107l-24.040039,-0.01001l0.01001,-31.98999l23.98999,0.01001l0.01001,-43.01001l52.98999,0.01001l-0.01001,42.98999l29.01001,0.01001l-0.01001,31.98999l-28.98999,-0.01001l-0.030029,130.629883c0,6.290039 1.860107,10.52002 5.580078,12.680176c3.719971,2.159912 11.869873,3.23999 24.449951,3.23999l-0.01001,36.459961z" fill="url(#svg_19)"/>
     <path id="svg_27" d="m3426.126709,2324.415527l52.98999,0.01001l-0.01001,45.629883c0,7.300049 2.929932,10.940186 8.810059,10.940186c5.869873,0 8.809814,-6.97998 8.809814,-20.960205c0,-18.179932 -3.599854,-29.919922 -10.819824,-35.239746c-27.280029,-14.470215 -43.72998,-24.590088 -49.360107,-30.340088c-5.629883,-5.75 -8.439941,-14.380127 -8.429932,-25.880127l0.01001,-28.819824c0.01001,-30.290039 20.449951,-45.430176 61.340088,-45.420166c39.779785,0.01001 59.660156,14.550049 59.649902,43.600098l-0.010254,42.47998l-51.689941,-0.01001l1.120117,-25.719971c0,-17.880127 -3.27002,-26.830078 -9.830078,-26.830078c-6.559814,0 -9.839844,5.610107 -9.839844,16.830078c0,11.599854 1.449951,20.349854 4.350098,26.27002c2.899902,5.919922 19.080078,16.099854 48.529785,30.540039c12.25,8.76001 18.370117,20.359863 18.370117,34.789795l-0.010254,32.190186c-0.009766,30.219971 -20.889648,45.320068 -62.659668,45.309814c-40.900146,-0.009766 -61.340088,-14.509766 -61.330078,-43.5l0.01001,-45.869873z" fill="url(#svg_18)"/>
     <path id="svg_28" d="m3756.066406,2410.415527l-52.949707,0l0,-171.340088c0.359863,-6.549805 -2.629883,-9.829834 -8.629883,-9.829834c-6.120117,0 -9.180176,3.149902 -9.370117,9.459961l0,172.709961l-53,-0.01001l0.050293,-172.48999c0,-6.550049 -2.980469,-9.830078 -8.930176,-9.830078c-6.080078,0 -9.120117,3.150146 -9.120117,9.460205l-0.049805,172.869873l-52.950195,-0.01001l0.060059,-214.98999l52.939941,0.01001l0,7.560059c7.290039,-6.02002 18.22998,-9.02002 32.810059,-9.02002c12.22998,0 23.350098,4.859863 33.359863,14.569824c9.27002,-9.699951 21.950195,-14.549805 38.02002,-14.549805c9.149902,0 17.740234,2.73999 25.77002,8.209961c8.029785,5.469971 12.050293,13.060059 12.050293,22.76001l-0.060547,184.459961z" fill="url(#svg_17)"/>
    </g>
    <g id="svg_29">
     <path id="svg_30" d="m3475.116699,2647.165527l-0.01001,43.25l-55.98999,-0.01001l0.060059,-223.98999l42.649902,0.01001l4.640137,7.48999c9.009766,-5.840088 19.699951,-8.76001 32.060059,-8.76001c12.489746,0 24.040039,2.609863 34.659668,7.820068c10.620117,5.209961 15.930176,12.699951 15.930176,22.47998l-0.040039,132.919922c0,7.76001 -3.870117,13.969971 -11.589844,18.639893c-7.72998,4.670166 -17.130371,7.010254 -28.189941,7c-15.320313,0.010254 -26.710205,-2.279785 -34.180176,-6.849854zm19,-30.530029l0.029785,-114.050049c0,-5.599854 -3.139648,-8.409912 -9.419922,-8.409912c-6.409912,0 -9.609863,2.800049 -9.609863,8.399902l-0.030029,114.370117c0,5.389893 3.199951,8.089844 9.610107,8.089844c6.279785,0 9.419922,-2.789795 9.419922,-8.399902z" fill="url(#svg_16)"/>
     <path id="svg_31" d="m3616.056641,2651.415527l-54.939941,-0.01001l0.060059,-228.98999l54.939941,0.01001l-0.060059,228.98999z" fill="url(#svg_15)"/>
     <path id="svg_32" d="m3757.066406,2651.415527l-54.949707,-0.01001l0,-6.209961c-7.090332,5.839844 -18.419922,8.76001 -34.010254,8.75c-10.819824,0 -20.189941,-2.370117 -28.109863,-7.100098c-7.919922,-4.72998 -11.879883,-10.919922 -11.879883,-18.560059l0.040039,-161.859863l54.959961,0.01001l-0.040039,150.449951c0,5.629883 3.199707,8.449951 9.609863,8.449951c6.280273,0 9.419922,-2.709961 9.430176,-8.129883l0.040039,-150.790039l54.959961,0.01001l-0.050293,184.98999z" fill="url(#svg_14)"/>
     <path id="svg_33" d="m3769.126953,2577.415527l54.989746,0.01001l-0.010254,39.209961c0,6.27002 3.110352,9.399902 9.320313,9.410156c6.219727,0 9.330078,-6 9.330078,-18.010254c0,-15.619873 -3.810059,-25.709961 -11.450195,-30.279785c-28.879883,-12.439941 -46.299805,-21.130127 -52.259766,-26.070068c-5.959961,-4.939941 -8.930176,-12.350098 -8.930176,-22.23999l0.010254,-24.969971c0.009766,-26.030029 21.459961,-39.040039 64.379883,-39.030029c41.75,0.01001 62.620117,12.5 62.609863,37.469971l-0.010254,36.5l-53.819824,-0.01001l1.160156,-22.209961c0,-15.449951 -3.410156,-23.169922 -10.22998,-23.180176c-6.820313,0 -10.240234,4.850098 -10.240234,14.540039c0,10.02002 1.510254,17.580078 4.530273,22.700195c3.02002,5.109863 19.849609,13.909912 50.489746,26.379883c12.740234,7.570068 19.109863,17.580078 19.109863,30.050049l-0.009766,27.810059c-0.009766,26.099854 -21.740234,39.149902 -65.179688,39.139893c-42.550293,-0.01001 -63.820313,-12.530029 -63.810547,-37.569824l0.020508,-39.650146z" fill="url(#svg_13)"/>
    </g>
   </g>
   <g transform="matrix(1.09025, 0, 0, 1.09025, -3398.4, -2131.01)" id="svg_21">
    <path id="svg_34" d="m3734.246582,1996.335449c-49.819824,-19.319824 -103.97998,-29.919922 -160.629883,-29.919922c-245.48999,0 -444.5,199.01001 -444.5,444.5s199.01001,444.5 444.5,444.5s444.499512,-199.01001 444.499512,-444.5" stroke-miterlimit="10" stroke-width="10" stroke="#00FFFF" fill="none"/>
   </g>
  </g>
 </g>
</svg>